<svg version="1.0" xmlns="http://www.w3.org/2000/svg"
 width="500.000000pt" height="500.000000pt" viewBox="0 0 500.000000 500.000000"
 preserveAspectRatio="xMidYMid meet">

<g transform="translate(0.000000,500.000000) scale(0.100000,-0.100000)"
fill="#000000" stroke="none">
<path d="M2410 3930 c-170 -14 -437 -127 -553 -234 -98 -90 -121 -172 -91
-322 5 -26 -2 -44 -33 -97 -58 -96 -76 -194 -70 -383 7 -218 22 -313 52 -342
28 -26 31 -37 11 -49 -8 -5 -15 -36 -19 -81 -3 -39 -9 -77 -12 -83 -4 -5 -19
16 -35 49 -27 58 -74 107 -91 96 -18 -11 -8 -33 30 -63 56 -45 76 -110 90
-301 7 -88 6 -108 -7 -122 -14 -17 -13 -18 11 -18 27 0 30 -6 58 -115 63 -239
121 -327 404 -611 105 -106 116 -113 221 -151 74 -26 89 -28 239 -28 192 0
207 5 345 108 52 39 97 73 100 76 3 3 28 24 55 46 122 97 158 133 212 205 42
55 94 160 147 293 8 20 23 41 33 45 13 5 18 19 20 52 1 47 71 280 94 317 7 12
30 30 51 40 27 13 38 24 38 40 0 12 -4 24 -8 27 -15 9 -61 -29 -98 -80 l-35
-49 3 83 c2 61 0 82 -9 82 -21 0 -15 32 13 61 27 29 67 134 90 238 57 261 58
309 10 430 -19 47 -37 109 -40 138 -4 28 -13 64 -21 80 -9 17 -15 56 -15 96 0
81 -10 102 -92 204 -169 208 -448 315 -858 327 -80 3 -188 1 -240 -4z m75
-638 c113 -20 430 -46 446 -37 16 10 273 -17 329 -34 149 -47 219 -149 241
-349 13 -131 11 -206 -11 -352 -14 -93 -20 -185 -20 -309 -1 -253 -31 -391
-106 -484 -18 -23 -52 -69 -75 -102 -64 -91 -414 -441 -469 -468 -41 -20 -59
-22 -210 -22 -260 0 -293 15 -442 205 -203 257 -345 481 -384 607 -24 78 -28
251 -10 403 9 74 16 181 16 238 0 101 14 178 76 414 36 138 99 228 194 275 35
18 75 34 89 36 56 10 222 -1 336 -21z"/>
<path d="M2105 2887 c-97 -33 -165 -81 -165 -117 0 -26 20 -25 72 1 108 55
208 63 314 25 72 -27 97 -23 109 14 9 28 -1 39 -54 63 -58 26 -216 34 -276 14z"/>
<path d="M3055 2854 c-98 -15 -145 -47 -129 -87 9 -25 25 -26 104 -5 118 31
218 11 310 -62 77 -61 100 -14 28 58 -75 76 -197 113 -313 96z"/>
<path d="M2095 2561 c-72 -18 -138 -73 -151 -126 l-7 -29 31 36 c32 36 86 68
116 68 14 0 13 -5 -4 -32 -20 -34 -27 -102 -11 -126 4 -7 45 -22 91 -33 66
-16 89 -18 108 -9 19 8 27 8 32 0 10 -16 47 32 55 70 4 16 4 39 0 50 -11 33
17 14 54 -38 30 -42 33 -44 26 -17 -17 76 -108 169 -182 186 -45 10 -116 10
-158 0z m89 -76 c13 -34 -24 -66 -50 -44 -17 14 -18 46 -1 52 24 10 45 7 51
-8z"/>
<path d="M2993 2480 c-50 -22 -119 -83 -140 -123 -22 -43 -11 -41 32 3 22 22
42 40 45 40 3 0 5 -29 5 -63 0 -85 11 -97 86 -97 33 0 89 6 125 12 64 13 65
13 75 53 8 30 8 49 -1 73 -6 19 -10 36 -7 39 12 12 50 -12 84 -53 43 -51 52
-55 45 -17 -8 40 -90 115 -148 136 -64 23 -148 22 -201 -3z m45 -49 c8 -4 12
-19 10 -32 -2 -18 -9 -24 -28 -24 -28 0 -39 27 -20 50 14 17 20 18 38 6z"/>
<path d="M2460 1967 c0 -48 25 -82 79 -106 93 -40 185 -19 219 50 11 22 18 49
15 60 -5 18 -7 18 -23 -8 -23 -38 -38 -49 -84 -62 -74 -20 -141 6 -191 74 -14
19 -14 19 -15 -8z"/>
<path d="M2148 1839 c-25 -14 -22 -38 5 -44 16 -4 32 -26 54 -73 64 -136 233
-259 348 -255 35 2 45 -1 35 -7 -11 -7 -1 -10 35 -10 93 0 181 32 272 99 57
43 73 61 124 149 11 19 27 32 38 32 41 0 36 46 -6 56 -19 5 -31 0 -51 -21
l-25 -28 -231 7 c-260 8 -536 42 -536 67 0 10 -29 39 -38 39 -4 0 -15 -5 -24
-11z m471 -140 c80 -6 148 -13 150 -15 30 -28 -287 -16 -356 13 -47 19 -41 27
14 19 26 -3 112 -11 192 -17z m-72 -215 c-3 -3 -12 -4 -19 -1 -8 3 -5 6 6 6
11 1 17 -2 13 -5z"/>
<path d="M2803 1426 c-23 -13 -59 -29 -80 -36 -52 -17 -68 -34 -23 -25 63 13
163 65 150 79 -3 3 -24 -6 -47 -18z"/>
<path d="M2390 1436 c0 -2 7 -7 16 -10 8 -3 12 -2 9 4 -6 10 -25 14 -25 6z"/>
<path d="M2450 1400 c8 -5 20 -10 25 -10 6 0 3 5 -5 10 -8 5 -19 10 -25 10 -5
0 -3 -5 5 -10z"/>
<path d="M2499 1302 c38 -31 119 -45 167 -30 48 16 54 44 9 40 -82 -6 -143 -6
-170 1 l-30 9 24 -20z"/>
<path d="M3560 1855 c-14 -8 -20 -14 -14 -15 5 0 19 7 30 15 24 18 16 19 -16
0z"/>
</g>
</svg>